<?xml version="1.0" standalone="no"?>
<!DOCTYPE svg PUBLIC "-//W3C//DTD SVG 20010904//EN"
 "http://www.w3.org/TR/2001/REC-SVG-20010904/DTD/svg10.dtd">
<svg version="1.0" xmlns="http://www.w3.org/2000/svg"
 width="380.000000pt" height="342.000000pt" viewBox="0 0 380.000000 342.000000"
 preserveAspectRatio="xMidYMid meet">

<g transform="translate(0.000000,342.000000) scale(0.100000,-0.100000)"
fill="#000000" stroke="none">
<path d="M0 3320 c0 -92 3 -106 30 -160 l30 -59 0 -1486 0 -1485 -30 0 -30 0
0 -65 0 -65 1900 0 1900 0 0 65 0 65 -30 0 -30 0 0 1485 0 1486 30 59 c27 54
30 68 30 160 l0 100 -255 0 -255 0 0 -100 c0 -95 2 -104 35 -170 l35 -70 0
-685 0 -685 -65 0 -65 0 0 45 c0 49 -20 108 -48 138 -14 16 -150 112 -198 140
-6 3 -37 -12 -70 -33 l-59 -40 -3 540 -2 540 -950 0 -950 0 -2 -540 -3 -540
-59 40 c-33 21 -64 36 -70 33 -48 -28 -184 -124 -198 -140 -28 -30 -48 -89
-48 -138 l0 -45 -65 0 -65 0 0 685 0 685 35 70 c33 66 35 75 35 170 l0 100
-255 0 -255 0 0 -100z m380 -50 c0 -12 -9 -39 -20 -60 l-20 -40 -84 0 -84 0
-21 36 c-12 19 -21 46 -21 60 l0 24 125 0 c119 0 125 -1 125 -20z m3290 0 c0
-12 -9 -39 -20 -60 l-20 -40 -85 0 -85 0 -20 40 c-40 78 -37 80 105 80 119 0
125 -1 125 -20z m-3350 -1685 l0 -1455 -65 0 -65 0 0 1455 0 1455 65 0 65 0 0
-1455z m3290 0 l0 -1455 -65 0 -65 0 0 1455 0 1455 65 0 65 0 0 -1455z m-890
1265 l0 -60 -820 0 -820 0 0 60 0 60 820 0 820 0 0 -60z m0 -1455 l0 -1265
-60 0 -59 0 -3 858 c-4 957 1 888 -76 1037 -59 112 -131 179 -383 355 -125 88
-233 160 -239 160 -6 0 -113 -72 -239 -160 -252 -176 -324 -243 -383 -355 -77
-149 -72 -80 -76 -1037 l-3 -858 -59 0 -60 0 0 1265 0 1265 820 0 820 0 0
-1265z m-720 925 c325 -224 359 -256 416 -375 41 -85 56 -176 52 -315 l-3
-105 -565 0 -565 0 1 145 c0 153 10 201 60 301 39 78 111 144 309 284 105 74
191 134 192 134 1 1 47 -30 103 -69z m1035 -475 c55 -35 70 -60 63 -106 -3
-23 -7 -24 -103 -27 -136 -4 -145 -1 -145 48 0 38 3 42 62 80 33 22 63 40 65
40 2 0 28 -16 58 -35z m-2201 13 c-4 -7 -3 -8 4 -4 6 4 33 -8 59 -27 43 -30
48 -37 48 -73 l0 -39 -120 0 -120 0 -3 27 c-5 39 13 65 66 98 48 30 79 39 66
18z m116 -1003 l0 -725 -250 0 -250 0 0 725 0 725 250 0 250 0 0 -725z m2400
0 l0 -725 -250 0 -250 0 0 725 0 725 250 0 250 0 0 -725z m-880 -95 l0 -630
-125 0 -125 0 0 396 c0 262 -4 410 -11 440 -19 74 -88 140 -208 199 l-101 49
-101 -49 c-107 -53 -165 -101 -195 -163 -17 -34 -19 -71 -22 -455 l-3 -417
-124 0 -125 0 0 630 0 630 570 0 570 0 0 -630z"/>
<path d="M630 1140 l0 -320 65 0 65 0 0 320 0 320 -65 0 -65 0 0 -320z"/>
<path d="M630 475 l0 -225 65 0 65 0 0 225 0 225 -65 0 -65 0 0 -225z"/>
<path d="M3040 1140 l0 -320 65 0 65 0 0 320 0 320 -65 0 -65 0 0 -320z"/>
<path d="M3040 475 l0 -225 65 0 65 0 0 225 0 225 -65 0 -65 0 0 -225z"/>
</g>
</svg>
